<mxfile host="app.diagrams.net" modified="2024-06-12T09:16:15.156Z" agent="Mozilla/5.0 (Macintosh; Intel Mac OS X 10_15_7) AppleWebKit/537.36 (KHTML, like Gecko) Chrome/125.0.0.0 Safari/537.36" etag="A-4CvVXWyYkLeaf-qxZa" version="24.5.3" type="github">
  <diagram name="第 1 页" id="mk2vvSWg7PKWHR4TqIGU">
    <mxGraphModel dx="1134" dy="593" grid="1" gridSize="10" guides="1" tooltips="1" connect="1" arrows="1" fold="1" page="1" pageScale="1" pageWidth="827" pageHeight="1169" math="0" shadow="0">
      <root>
        <mxCell id="0" />
        <mxCell id="1" parent="0" />
        <mxCell id="l2Wfg2gdX9lSR1tj45w3-1" value="" style="endArrow=none;dashed=1;html=1;rounded=0;" edge="1" parent="1">
          <mxGeometry width="50" height="50" relative="1" as="geometry">
            <mxPoint x="160" y="440" as="sourcePoint" />
            <mxPoint x="1440" y="440" as="targetPoint" />
          </mxGeometry>
        </mxCell>
        <mxCell id="l2Wfg2gdX9lSR1tj45w3-2" value="" style="endArrow=none;dashed=1;html=1;rounded=0;" edge="1" parent="1">
          <mxGeometry width="50" height="50" relative="1" as="geometry">
            <mxPoint x="160" y="640" as="sourcePoint" />
            <mxPoint x="1440" y="640" as="targetPoint" />
          </mxGeometry>
        </mxCell>
        <mxCell id="l2Wfg2gdX9lSR1tj45w3-3" value="认知层" style="text;html=1;strokeColor=none;fillColor=none;align=center;verticalAlign=middle;whiteSpace=wrap;rounded=0;fontSize=20;" vertex="1" parent="1">
          <mxGeometry x="40" y="330" width="110" height="30" as="geometry" />
        </mxCell>
        <mxCell id="l2Wfg2gdX9lSR1tj45w3-4" value="交互层" style="text;html=1;strokeColor=none;fillColor=none;align=center;verticalAlign=middle;whiteSpace=wrap;rounded=0;fontSize=20;" vertex="1" parent="1">
          <mxGeometry x="40" y="530" width="110" height="30" as="geometry" />
        </mxCell>
        <mxCell id="l2Wfg2gdX9lSR1tj45w3-5" value="动力层" style="text;html=1;strokeColor=none;fillColor=none;align=center;verticalAlign=middle;whiteSpace=wrap;rounded=0;fontSize=20;" vertex="1" parent="1">
          <mxGeometry x="40" y="720" width="110" height="30" as="geometry" />
        </mxCell>
        <mxCell id="l2Wfg2gdX9lSR1tj45w3-60" style="rounded=0;orthogonalLoop=1;jettySize=auto;html=1;endArrow=none;endFill=0;" edge="1" parent="1" source="l2Wfg2gdX9lSR1tj45w3-41" target="l2Wfg2gdX9lSR1tj45w3-48">
          <mxGeometry relative="1" as="geometry" />
        </mxCell>
        <mxCell id="l2Wfg2gdX9lSR1tj45w3-41" value="成长" style="rounded=1;whiteSpace=wrap;html=1;fillColor=#dae8fc;strokeColor=#6c8ebf;" vertex="1" parent="1">
          <mxGeometry x="680" y="370" width="80" height="40" as="geometry" />
        </mxCell>
        <mxCell id="l2Wfg2gdX9lSR1tj45w3-65" style="edgeStyle=none;rounded=0;orthogonalLoop=1;jettySize=auto;html=1;entryX=0.5;entryY=1;entryDx=0;entryDy=0;strokeColor=default;align=center;verticalAlign=middle;fontFamily=Helvetica;fontSize=11;fontColor=default;labelBackgroundColor=default;endArrow=none;endFill=0;" edge="1" parent="1" target="l2Wfg2gdX9lSR1tj45w3-64">
          <mxGeometry relative="1" as="geometry">
            <mxPoint x="960" y="720" as="sourcePoint" />
          </mxGeometry>
        </mxCell>
        <mxCell id="l2Wfg2gdX9lSR1tj45w3-82" style="edgeStyle=none;rounded=0;orthogonalLoop=1;jettySize=auto;html=1;entryX=0.5;entryY=1;entryDx=0;entryDy=0;strokeColor=default;align=center;verticalAlign=middle;fontFamily=Helvetica;fontSize=11;fontColor=default;labelBackgroundColor=default;endArrow=none;endFill=0;" edge="1" parent="1" source="l2Wfg2gdX9lSR1tj45w3-46" target="l2Wfg2gdX9lSR1tj45w3-71">
          <mxGeometry relative="1" as="geometry" />
        </mxCell>
        <mxCell id="l2Wfg2gdX9lSR1tj45w3-46" value="心智世界" style="rounded=1;whiteSpace=wrap;html=1;fillColor=#e1d5e7;strokeColor=#9673a6;arcSize=29;" vertex="1" parent="1">
          <mxGeometry x="920" y="720" width="80" height="40" as="geometry" />
        </mxCell>
        <mxCell id="l2Wfg2gdX9lSR1tj45w3-61" style="edgeStyle=none;rounded=0;orthogonalLoop=1;jettySize=auto;html=1;entryX=0.5;entryY=0;entryDx=0;entryDy=0;strokeColor=default;align=center;verticalAlign=middle;fontFamily=Helvetica;fontSize=11;fontColor=default;labelBackgroundColor=default;endArrow=none;endFill=0;" edge="1" parent="1" source="l2Wfg2gdX9lSR1tj45w3-48" target="l2Wfg2gdX9lSR1tj45w3-46">
          <mxGeometry relative="1" as="geometry" />
        </mxCell>
        <mxCell id="l2Wfg2gdX9lSR1tj45w3-95" style="edgeStyle=none;rounded=0;orthogonalLoop=1;jettySize=auto;html=1;entryX=0;entryY=0.5;entryDx=0;entryDy=0;strokeColor=default;align=center;verticalAlign=middle;fontFamily=Helvetica;fontSize=11;fontColor=default;labelBackgroundColor=default;endArrow=none;endFill=0;" edge="1" parent="1" source="l2Wfg2gdX9lSR1tj45w3-48" target="l2Wfg2gdX9lSR1tj45w3-64">
          <mxGeometry relative="1" as="geometry" />
        </mxCell>
        <mxCell id="l2Wfg2gdX9lSR1tj45w3-97" style="edgeStyle=none;rounded=0;orthogonalLoop=1;jettySize=auto;html=1;strokeColor=default;align=center;verticalAlign=middle;fontFamily=Helvetica;fontSize=11;fontColor=default;labelBackgroundColor=default;endArrow=none;endFill=0;" edge="1" parent="1" source="l2Wfg2gdX9lSR1tj45w3-48" target="l2Wfg2gdX9lSR1tj45w3-71">
          <mxGeometry relative="1" as="geometry" />
        </mxCell>
        <mxCell id="l2Wfg2gdX9lSR1tj45w3-48" value="认知更新" style="rounded=1;whiteSpace=wrap;html=1;fillColor=#d5e8d4;strokeColor=#82b366;" vertex="1" parent="1">
          <mxGeometry x="690" y="515" width="80" height="40" as="geometry" />
        </mxCell>
        <mxCell id="l2Wfg2gdX9lSR1tj45w3-63" style="edgeStyle=none;rounded=0;orthogonalLoop=1;jettySize=auto;html=1;strokeColor=default;align=center;verticalAlign=middle;fontFamily=Helvetica;fontSize=11;fontColor=default;labelBackgroundColor=default;endArrow=none;endFill=0;" edge="1" parent="1" source="l2Wfg2gdX9lSR1tj45w3-62" target="l2Wfg2gdX9lSR1tj45w3-46">
          <mxGeometry relative="1" as="geometry" />
        </mxCell>
        <mxCell id="l2Wfg2gdX9lSR1tj45w3-81" style="edgeStyle=none;rounded=0;orthogonalLoop=1;jettySize=auto;html=1;entryX=0.5;entryY=1;entryDx=0;entryDy=0;strokeColor=default;align=center;verticalAlign=middle;fontFamily=Helvetica;fontSize=11;fontColor=default;labelBackgroundColor=default;endArrow=none;endFill=0;" edge="1" parent="1" source="l2Wfg2gdX9lSR1tj45w3-62" target="l2Wfg2gdX9lSR1tj45w3-77">
          <mxGeometry relative="1" as="geometry" />
        </mxCell>
        <mxCell id="l2Wfg2gdX9lSR1tj45w3-62" value="稳定" style="rounded=1;whiteSpace=wrap;html=1;fillColor=#e1d5e7;strokeColor=#9673a6;arcSize=29;" vertex="1" parent="1">
          <mxGeometry x="1130" y="760" width="80" height="40" as="geometry" />
        </mxCell>
        <mxCell id="l2Wfg2gdX9lSR1tj45w3-64" value="预测模型" style="rounded=1;whiteSpace=wrap;html=1;fillColor=#d5e8d4;strokeColor=#82b366;" vertex="1" parent="1">
          <mxGeometry x="860" y="500" width="80" height="40" as="geometry" />
        </mxCell>
        <mxCell id="l2Wfg2gdX9lSR1tj45w3-68" style="edgeStyle=none;rounded=0;orthogonalLoop=1;jettySize=auto;html=1;strokeColor=default;align=center;verticalAlign=middle;fontFamily=Helvetica;fontSize=11;fontColor=default;labelBackgroundColor=default;endArrow=none;endFill=0;" edge="1" parent="1" source="l2Wfg2gdX9lSR1tj45w3-67" target="l2Wfg2gdX9lSR1tj45w3-64">
          <mxGeometry relative="1" as="geometry" />
        </mxCell>
        <mxCell id="l2Wfg2gdX9lSR1tj45w3-75" style="edgeStyle=none;rounded=0;orthogonalLoop=1;jettySize=auto;html=1;entryX=0.25;entryY=0;entryDx=0;entryDy=0;strokeColor=default;align=center;verticalAlign=middle;fontFamily=Helvetica;fontSize=11;fontColor=default;labelBackgroundColor=default;endArrow=none;endFill=0;" edge="1" parent="1" source="l2Wfg2gdX9lSR1tj45w3-67" target="l2Wfg2gdX9lSR1tj45w3-70">
          <mxGeometry relative="1" as="geometry" />
        </mxCell>
        <mxCell id="l2Wfg2gdX9lSR1tj45w3-85" style="edgeStyle=none;rounded=0;orthogonalLoop=1;jettySize=auto;html=1;strokeColor=default;align=center;verticalAlign=middle;fontFamily=Helvetica;fontSize=11;fontColor=default;labelBackgroundColor=default;endArrow=none;endFill=0;" edge="1" parent="1" source="l2Wfg2gdX9lSR1tj45w3-67" target="l2Wfg2gdX9lSR1tj45w3-84">
          <mxGeometry relative="1" as="geometry" />
        </mxCell>
        <mxCell id="l2Wfg2gdX9lSR1tj45w3-67" value="真实世界" style="rounded=1;whiteSpace=wrap;html=1;fillColor=#dae8fc;strokeColor=#6c8ebf;" vertex="1" parent="1">
          <mxGeometry x="850" y="200" width="80" height="40" as="geometry" />
        </mxCell>
        <mxCell id="l2Wfg2gdX9lSR1tj45w3-78" style="edgeStyle=none;rounded=0;orthogonalLoop=1;jettySize=auto;html=1;strokeColor=default;align=center;verticalAlign=middle;fontFamily=Helvetica;fontSize=11;fontColor=default;labelBackgroundColor=default;endArrow=none;endFill=0;" edge="1" parent="1" source="l2Wfg2gdX9lSR1tj45w3-70" target="l2Wfg2gdX9lSR1tj45w3-77">
          <mxGeometry relative="1" as="geometry" />
        </mxCell>
        <mxCell id="l2Wfg2gdX9lSR1tj45w3-70" value="概念" style="rounded=1;whiteSpace=wrap;html=1;fillColor=#d5e8d4;strokeColor=#82b366;" vertex="1" parent="1">
          <mxGeometry x="1020" y="450" width="80" height="40" as="geometry" />
        </mxCell>
        <mxCell id="l2Wfg2gdX9lSR1tj45w3-89" style="edgeStyle=none;rounded=0;orthogonalLoop=1;jettySize=auto;html=1;entryX=0;entryY=0.5;entryDx=0;entryDy=0;strokeColor=default;align=center;verticalAlign=middle;fontFamily=Helvetica;fontSize=11;fontColor=default;labelBackgroundColor=default;endArrow=none;endFill=0;" edge="1" parent="1" source="l2Wfg2gdX9lSR1tj45w3-71" target="l2Wfg2gdX9lSR1tj45w3-88">
          <mxGeometry relative="1" as="geometry" />
        </mxCell>
        <mxCell id="l2Wfg2gdX9lSR1tj45w3-71" value="框架" style="rounded=1;whiteSpace=wrap;html=1;fillColor=#d5e8d4;strokeColor=#82b366;" vertex="1" parent="1">
          <mxGeometry x="520" y="530" width="80" height="40" as="geometry" />
        </mxCell>
        <mxCell id="l2Wfg2gdX9lSR1tj45w3-72" value="规则" style="rounded=1;whiteSpace=wrap;html=1;fillColor=#d5e8d4;strokeColor=#82b366;" vertex="1" parent="1">
          <mxGeometry x="1160" y="460" width="80" height="40" as="geometry" />
        </mxCell>
        <mxCell id="l2Wfg2gdX9lSR1tj45w3-76" style="edgeStyle=none;rounded=0;orthogonalLoop=1;jettySize=auto;html=1;entryX=0.612;entryY=0.057;entryDx=0;entryDy=0;entryPerimeter=0;strokeColor=default;align=center;verticalAlign=middle;fontFamily=Helvetica;fontSize=11;fontColor=default;labelBackgroundColor=default;endArrow=none;endFill=0;" edge="1" parent="1" source="l2Wfg2gdX9lSR1tj45w3-67" target="l2Wfg2gdX9lSR1tj45w3-72">
          <mxGeometry relative="1" as="geometry" />
        </mxCell>
        <mxCell id="l2Wfg2gdX9lSR1tj45w3-79" style="edgeStyle=none;rounded=0;orthogonalLoop=1;jettySize=auto;html=1;strokeColor=default;align=center;verticalAlign=middle;fontFamily=Helvetica;fontSize=11;fontColor=default;labelBackgroundColor=default;endArrow=none;endFill=0;" edge="1" parent="1" source="l2Wfg2gdX9lSR1tj45w3-77" target="l2Wfg2gdX9lSR1tj45w3-72">
          <mxGeometry relative="1" as="geometry" />
        </mxCell>
        <mxCell id="l2Wfg2gdX9lSR1tj45w3-80" style="edgeStyle=none;rounded=0;orthogonalLoop=1;jettySize=auto;html=1;entryX=0.75;entryY=0;entryDx=0;entryDy=0;strokeColor=default;align=center;verticalAlign=middle;fontFamily=Helvetica;fontSize=11;fontColor=default;labelBackgroundColor=default;endArrow=none;endFill=0;" edge="1" parent="1" source="l2Wfg2gdX9lSR1tj45w3-77" target="l2Wfg2gdX9lSR1tj45w3-46">
          <mxGeometry relative="1" as="geometry" />
        </mxCell>
        <mxCell id="l2Wfg2gdX9lSR1tj45w3-92" style="edgeStyle=none;rounded=0;orthogonalLoop=1;jettySize=auto;html=1;strokeColor=default;align=center;verticalAlign=middle;fontFamily=Helvetica;fontSize=11;fontColor=default;labelBackgroundColor=default;endArrow=none;endFill=0;" edge="1" parent="1" source="l2Wfg2gdX9lSR1tj45w3-77" target="l2Wfg2gdX9lSR1tj45w3-90">
          <mxGeometry relative="1" as="geometry" />
        </mxCell>
        <mxCell id="l2Wfg2gdX9lSR1tj45w3-77" value="中心化效应" style="rounded=1;whiteSpace=wrap;html=1;fillColor=#d5e8d4;strokeColor=#82b366;" vertex="1" parent="1">
          <mxGeometry x="980" y="560" width="80" height="40" as="geometry" />
        </mxCell>
        <mxCell id="l2Wfg2gdX9lSR1tj45w3-86" style="edgeStyle=none;rounded=0;orthogonalLoop=1;jettySize=auto;html=1;strokeColor=default;align=center;verticalAlign=middle;fontFamily=Helvetica;fontSize=11;fontColor=default;labelBackgroundColor=default;endArrow=none;endFill=0;" edge="1" parent="1" source="l2Wfg2gdX9lSR1tj45w3-84" target="l2Wfg2gdX9lSR1tj45w3-71">
          <mxGeometry relative="1" as="geometry" />
        </mxCell>
        <mxCell id="l2Wfg2gdX9lSR1tj45w3-84" value="新事物" style="rounded=1;whiteSpace=wrap;html=1;fillColor=#dae8fc;strokeColor=#6c8ebf;" vertex="1" parent="1">
          <mxGeometry x="584" y="310" width="80" height="40" as="geometry" />
        </mxCell>
        <mxCell id="l2Wfg2gdX9lSR1tj45w3-98" style="edgeStyle=none;rounded=0;orthogonalLoop=1;jettySize=auto;html=1;entryX=0;entryY=0.75;entryDx=0;entryDy=0;strokeColor=default;align=center;verticalAlign=middle;fontFamily=Helvetica;fontSize=11;fontColor=default;labelBackgroundColor=default;endArrow=none;endFill=0;" edge="1" parent="1" source="l2Wfg2gdX9lSR1tj45w3-88" target="l2Wfg2gdX9lSR1tj45w3-41">
          <mxGeometry relative="1" as="geometry" />
        </mxCell>
        <mxCell id="l2Wfg2gdX9lSR1tj45w3-88" value="实验心态" style="rounded=1;whiteSpace=wrap;html=1;fillColor=#d5e8d4;strokeColor=#82b366;" vertex="1" parent="1">
          <mxGeometry x="374" y="520" width="80" height="40" as="geometry" />
        </mxCell>
        <mxCell id="l2Wfg2gdX9lSR1tj45w3-91" style="edgeStyle=none;rounded=0;orthogonalLoop=1;jettySize=auto;html=1;entryX=0.5;entryY=0;entryDx=0;entryDy=0;strokeColor=default;align=center;verticalAlign=middle;fontFamily=Helvetica;fontSize=11;fontColor=default;labelBackgroundColor=default;endArrow=none;endFill=0;" edge="1" parent="1" source="l2Wfg2gdX9lSR1tj45w3-90" target="l2Wfg2gdX9lSR1tj45w3-62">
          <mxGeometry relative="1" as="geometry" />
        </mxCell>
        <mxCell id="l2Wfg2gdX9lSR1tj45w3-90" value="任务心态" style="rounded=1;whiteSpace=wrap;html=1;fillColor=#d5e8d4;strokeColor=#82b366;" vertex="1" parent="1">
          <mxGeometry x="1150" y="585" width="80" height="40" as="geometry" />
        </mxCell>
        <mxCell id="l2Wfg2gdX9lSR1tj45w3-100" style="edgeStyle=none;rounded=0;orthogonalLoop=1;jettySize=auto;html=1;entryX=0;entryY=0.5;entryDx=0;entryDy=0;strokeColor=default;align=center;verticalAlign=middle;fontFamily=Helvetica;fontSize=11;fontColor=default;labelBackgroundColor=default;endArrow=none;endFill=0;" edge="1" parent="1" source="l2Wfg2gdX9lSR1tj45w3-99" target="l2Wfg2gdX9lSR1tj45w3-46">
          <mxGeometry relative="1" as="geometry" />
        </mxCell>
        <mxCell id="l2Wfg2gdX9lSR1tj45w3-99" value="自我察觉" style="rounded=1;whiteSpace=wrap;html=1;fillColor=#e1d5e7;strokeColor=#9673a6;arcSize=29;" vertex="1" parent="1">
          <mxGeometry x="550" y="690" width="80" height="40" as="geometry" />
        </mxCell>
        <mxCell id="l2Wfg2gdX9lSR1tj45w3-104" style="edgeStyle=none;rounded=0;orthogonalLoop=1;jettySize=auto;html=1;strokeColor=default;align=center;verticalAlign=middle;fontFamily=Helvetica;fontSize=11;fontColor=default;labelBackgroundColor=default;endArrow=none;endFill=0;" edge="1" parent="1" source="l2Wfg2gdX9lSR1tj45w3-103" target="l2Wfg2gdX9lSR1tj45w3-99">
          <mxGeometry relative="1" as="geometry" />
        </mxCell>
        <mxCell id="l2Wfg2gdX9lSR1tj45w3-108" style="edgeStyle=none;rounded=0;orthogonalLoop=1;jettySize=auto;html=1;strokeColor=default;align=center;verticalAlign=middle;fontFamily=Helvetica;fontSize=11;fontColor=default;labelBackgroundColor=default;endArrow=none;endFill=0;" edge="1" parent="1" source="l2Wfg2gdX9lSR1tj45w3-103" target="l2Wfg2gdX9lSR1tj45w3-88">
          <mxGeometry relative="1" as="geometry" />
        </mxCell>
        <mxCell id="l2Wfg2gdX9lSR1tj45w3-103" value="观察心态" style="rounded=1;whiteSpace=wrap;html=1;fillColor=#d5e8d4;strokeColor=#82b366;" vertex="1" parent="1">
          <mxGeometry x="270" y="565" width="80" height="40" as="geometry" />
        </mxCell>
        <mxCell id="l2Wfg2gdX9lSR1tj45w3-106" style="edgeStyle=none;rounded=0;orthogonalLoop=1;jettySize=auto;html=1;strokeColor=default;align=center;verticalAlign=middle;fontFamily=Helvetica;fontSize=11;fontColor=default;labelBackgroundColor=default;endArrow=none;endFill=0;" edge="1" parent="1" source="l2Wfg2gdX9lSR1tj45w3-105" target="l2Wfg2gdX9lSR1tj45w3-84">
          <mxGeometry relative="1" as="geometry" />
        </mxCell>
        <mxCell id="l2Wfg2gdX9lSR1tj45w3-107" style="edgeStyle=none;rounded=0;orthogonalLoop=1;jettySize=auto;html=1;strokeColor=default;align=center;verticalAlign=middle;fontFamily=Helvetica;fontSize=11;fontColor=default;labelBackgroundColor=default;endArrow=none;endFill=0;" edge="1" parent="1" source="l2Wfg2gdX9lSR1tj45w3-105" target="l2Wfg2gdX9lSR1tj45w3-88">
          <mxGeometry relative="1" as="geometry" />
        </mxCell>
        <mxCell id="l2Wfg2gdX9lSR1tj45w3-105" value="经验心态" style="rounded=1;whiteSpace=wrap;html=1;fillColor=#d5e8d4;strokeColor=#82b366;" vertex="1" parent="1">
          <mxGeometry x="250" y="460" width="80" height="40" as="geometry" />
        </mxCell>
      </root>
    </mxGraphModel>
  </diagram>
</mxfile>
